<svg xmlns="http://www.w3.org/2000/svg" width="36.3" height="36.3" viewBox="0 0 36.3 36.3"><defs><style>.a{fill:#29413b;stroke:#fff;stroke-width:0.3px;}</style></defs><g transform="translate(0.15 0.151)"><path class="a" d="M33.047,12.656H23.158c.031-.347.048-.7.048-1.053A11.606,11.606,0,0,0,5.805,1.55a.7.7,0,1,0,.7,1.218A10.2,10.2,0,1,1,11.6,21.8a10.083,10.083,0,0,1-6.394-2.255.7.7,0,0,0-.648-.124l-1.866.488L3.426,18.3a.7.7,0,0,0-.071-.705,10.2,10.2,0,0,1-.58-11.1.7.7,0,1,0-1.217-.705,11.611,11.611,0,0,0,.421,12.294L.8,20.672a.7.7,0,0,0,.818.971l2.99-.782a11.6,11.6,0,0,0,8.609,2.231V29.25A2.956,2.956,0,0,0,16.172,32.2h9.945l4.446,3.638a.7.7,0,0,0,1.148-.544V32.2h1.336A2.957,2.957,0,0,0,36,29.25V15.609a2.956,2.956,0,0,0-2.953-2.953ZM34.594,29.25A1.549,1.549,0,0,1,33.047,30.8H31.008a.7.7,0,0,0-.7.7v2.313l-3.473-2.841c-.191-.175-.359-.175-.736-.175H16.172a1.549,1.549,0,0,1-1.547-1.547V22.806a11.642,11.642,0,0,0,8.318-8.744h10.1a1.548,1.548,0,0,1,1.547,1.547Zm0,0" transform="translate(0)"/><path class="a" d="M295.287,257.009a.7.7,0,0,0-.3-1.339H294.7l-2.268-5.168a.7.7,0,0,0-1.288,0l-2.268,5.168h-.288a.7.7,0,0,0-.3,1.339l-.845,1.925a.7.7,0,1,0,1.288.565l1.063-2.422h3.986l1.063,2.422a.7.7,0,1,0,1.288-.565Zm-4.875-1.339,1.376-3.136,1.376,3.136Zm0,0" transform="translate(-267.179 -232.498)"/><path class="a" d="M46.105,46.8a.7.7,0,1,0-.5-.206A.709.709,0,0,0,46.105,46.8Zm0,0" transform="translate(-42.21 -42.207)"/><path class="a" d="M100.5,95.272a.7.7,0,1,0,.676,1.233,8.052,8.052,0,0,0,3.48-3.775,8.054,8.054,0,0,0,3.48,3.775.7.7,0,1,0,.676-1.233,6.65,6.65,0,0,1-3.378-4.838h3.122a.7.7,0,0,0,0-1.406h-3.2V86.1a.7.7,0,1,0-1.406,0v2.93h-2.54a.7.7,0,0,0,0,1.406h2.465A6.649,6.649,0,0,1,100.5,95.272Zm0,0" transform="translate(-93.093 -79.391)"/></g></svg>